<svg id="visual" viewBox="0 0 1920 1080" width="1920" height="1080" xmlns="http://www.w3.org/2000/svg" xmlns:xlink="http://www.w3.org/1999/xlink" version="1.1"><rect x="0" y="0" width="1920" height="1080" fill="#14171f"></rect><path d="M0 908L35.5 902.5C71 897 142 886 213.2 887.3C284.3 888.7 355.7 902.3 426.8 918.2C498 934 569 952 640 949.2C711 946.3 782 922.7 853.2 909.8C924.3 897 995.7 895 1066.8 902.7C1138 910.3 1209 927.7 1280 934.7C1351 941.7 1422 938.3 1493.2 943.7C1564.3 949 1635.7 963 1706.8 957C1778 951 1849 925 1884.5 912L1920 899L1920 1081L1884.5 1081C1849 1081 1778 1081 1706.8 1081C1635.7 1081 1564.3 1081 1493.2 1081C1422 1081 1351 1081 1280 1081C1209 1081 1138 1081 1066.8 1081C995.7 1081 924.3 1081 853.2 1081C782 1081 711 1081 640 1081C569 1081 498 1081 426.8 1081C355.7 1081 284.3 1081 213.2 1081C142 1081 71 1081 35.5 1081L0 1081Z" fill="#ff9924" stroke-linecap="round" stroke-linejoin="miter"></path></svg>