<svg id="visual" viewBox="0 0 1920 1080" width="1920" height="1080" xmlns="http://www.w3.org/2000/svg" xmlns:xlink="http://www.w3.org/1999/xlink" version="1.1"><rect x="0" y="0" width="1920" height="1080" fill="#14171f"></rect><path d="M0 951L35.5 959C71 967 142 983 213.2 983.5C284.3 984 355.7 969 426.8 955.3C498 941.7 569 929.3 640 938C711 946.7 782 976.3 853.2 978.8C924.3 981.3 995.7 956.7 1066.8 954C1138 951.3 1209 970.7 1280 982.2C1351 993.7 1422 997.3 1493.2 990.7C1564.3 984 1635.7 967 1706.8 965.7C1778 964.3 1849 978.7 1884.5 985.8L1920 993L1920 1081L1884.5 1081C1849 1081 1778 1081 1706.8 1081C1635.7 1081 1564.3 1081 1493.2 1081C1422 1081 1351 1081 1280 1081C1209 1081 1138 1081 1066.8 1081C995.7 1081 924.3 1081 853.2 1081C782 1081 711 1081 640 1081C569 1081 498 1081 426.8 1081C355.7 1081 284.3 1081 213.2 1081C142 1081 71 1081 35.5 1081L0 1081Z" fill="#ff9924" stroke-linecap="round" stroke-linejoin="miter"></path></svg>