<svg id="visual" viewBox="0 0 1920 1080" width="1920" height="1080" xmlns="http://www.w3.org/2000/svg" xmlns:xlink="http://www.w3.org/1999/xlink" version="1.1"><rect x="0" y="0" width="1920" height="1080" fill="#14171f"></rect><path d="M0 862L45.7 855.8C91.3 849.7 182.7 837.3 274.2 827.8C365.7 818.3 457.3 811.7 548.8 818.2C640.3 824.7 731.7 844.3 823 851C914.3 857.7 1005.7 851.3 1097 850.2C1188.3 849 1279.7 853 1371.2 850.5C1462.7 848 1554.3 839 1645.8 838.8C1737.3 838.7 1828.7 847.3 1874.3 851.7L1920 856L1920 1081L1874.3 1081C1828.7 1081 1737.3 1081 1645.8 1081C1554.3 1081 1462.7 1081 1371.2 1081C1279.7 1081 1188.3 1081 1097 1081C1005.7 1081 914.3 1081 823 1081C731.7 1081 640.3 1081 548.8 1081C457.3 1081 365.7 1081 274.2 1081C182.7 1081 91.3 1081 45.7 1081L0 1081Z" fill="#30153b"></path><path d="M0 894L45.7 891.5C91.3 889 182.7 884 274.2 882.2C365.7 880.3 457.3 881.7 548.8 889C640.3 896.3 731.7 909.7 823 910.7C914.3 911.7 1005.7 900.3 1097 890.2C1188.3 880 1279.7 871 1371.2 871.8C1462.7 872.7 1554.3 883.3 1645.8 884.8C1737.3 886.3 1828.7 878.7 1874.3 874.8L1920 871L1920 1081L1874.3 1081C1828.7 1081 1737.3 1081 1645.8 1081C1554.3 1081 1462.7 1081 1371.2 1081C1279.7 1081 1188.3 1081 1097 1081C1005.7 1081 914.3 1081 823 1081C731.7 1081 640.3 1081 548.8 1081C457.3 1081 365.7 1081 274.2 1081C182.7 1081 91.3 1081 45.7 1081L0 1081Z" fill="#872855"></path><path d="M0 953L45.7 956C91.3 959 182.7 965 274.2 962.5C365.7 960 457.3 949 548.8 946.3C640.3 943.7 731.7 949.3 823 953.7C914.3 958 1005.7 961 1097 963.7C1188.3 966.3 1279.7 968.7 1371.2 971.2C1462.7 973.7 1554.3 976.3 1645.8 969.2C1737.3 962 1828.7 945 1874.3 936.5L1920 928L1920 1081L1874.3 1081C1828.7 1081 1737.3 1081 1645.8 1081C1554.3 1081 1462.7 1081 1371.2 1081C1279.7 1081 1188.3 1081 1097 1081C1005.7 1081 914.3 1081 823 1081C731.7 1081 640.3 1081 548.8 1081C457.3 1081 365.7 1081 274.2 1081C182.7 1081 91.3 1081 45.7 1081L0 1081Z" fill="#d6504b"></path><path d="M0 1035L45.7 1035.7C91.3 1036.3 182.7 1037.7 274.2 1038C365.7 1038.3 457.3 1037.7 548.8 1038C640.3 1038.3 731.7 1039.7 823 1031.2C914.3 1022.7 1005.7 1004.3 1097 1002.7C1188.3 1001 1279.7 1016 1371.2 1018.7C1462.7 1021.3 1554.3 1011.7 1645.8 1011.3C1737.3 1011 1828.7 1020 1874.3 1024.5L1920 1029L1920 1081L1874.3 1081C1828.7 1081 1737.3 1081 1645.8 1081C1554.3 1081 1462.7 1081 1371.2 1081C1279.7 1081 1188.3 1081 1097 1081C1005.7 1081 914.3 1081 823 1081C731.7 1081 640.3 1081 548.8 1081C457.3 1081 365.7 1081 274.2 1081C182.7 1081 91.3 1081 45.7 1081L0 1081Z" fill="#ff9924"></path></svg>