<svg id="visual" viewBox="0 0 1920 1080" width="1920" height="1080" xmlns="http://www.w3.org/2000/svg" xmlns:xlink="http://www.w3.org/1999/xlink" version="1.1"><rect x="0" y="0" width="1920" height="1080" fill="#55188c"></rect><path d="M0 96L35.5 102.7C71 109.3 142 122.7 213.2 119.7C284.3 116.7 355.7 97.3 426.8 94C498 90.7 569 103.3 640 101.7C711 100 782 84 853.2 87.7C924.3 91.3 995.7 114.7 1066.8 117.3C1138 120 1209 102 1280 98.3C1351 94.7 1422 105.3 1493.2 114.8C1564.3 124.3 1635.7 132.7 1706.8 129.7C1778 126.7 1849 112.3 1884.5 105.2L1920 98L1920 0L1884.5 0C1849 0 1778 0 1706.8 0C1635.7 0 1564.3 0 1493.2 0C1422 0 1351 0 1280 0C1209 0 1138 0 1066.8 0C995.7 0 924.3 0 853.2 0C782 0 711 0 640 0C569 0 498 0 426.8 0C355.7 0 284.3 0 213.2 0C142 0 71 0 35.5 0L0 0Z" fill="#ff9924" stroke-linecap="round" stroke-linejoin="miter"></path></svg>