<svg id="visual" viewBox="0 0 1920 1080" width="1920" height="1080" xmlns="http://www.w3.org/2000/svg" xmlns:xlink="http://www.w3.org/1999/xlink" version="1.1"><rect x="0" y="0" width="1920" height="1080" fill="#55188c"></rect><path d="M0 74L35.5 83.5C71 93 142 112 213.2 116.8C284.3 121.7 355.7 112.3 426.8 100.5C498 88.7 569 74.3 640 81.7C711 89 782 118 853.2 120.5C924.3 123 995.7 99 1066.8 97.8C1138 96.7 1209 118.3 1280 131.5C1351 144.7 1422 149.3 1493.2 140.8C1564.3 132.3 1635.7 110.7 1706.8 93.8C1778 77 1849 65 1884.5 59L1920 53L1920 0L1884.5 0C1849 0 1778 0 1706.8 0C1635.7 0 1564.3 0 1493.2 0C1422 0 1351 0 1280 0C1209 0 1138 0 1066.8 0C995.7 0 924.3 0 853.2 0C782 0 711 0 640 0C569 0 498 0 426.8 0C355.7 0 284.3 0 213.2 0C142 0 71 0 35.5 0L0 0Z" fill="#ff9924" stroke-linecap="round" stroke-linejoin="miter"></path></svg>