<svg id="visual" viewBox="0 0 960 540" width="960" height="540" xmlns="http://www.w3.org/2000/svg" xmlns:xlink="http://www.w3.org/1999/xlink" version="1.1"><rect x="0" y="0" width="960" height="540" fill="#14171f"></rect><path d="M0 508L13.3 510.8C26.7 513.7 53.3 519.3 80 521.5C106.7 523.7 133.3 522.3 160 521.3C186.7 520.3 213.3 519.7 240 516C266.7 512.3 293.3 505.7 320 503C346.7 500.3 373.3 501.7 400 504.3C426.7 507 453.3 511 480 510.5C506.7 510 533.3 505 560 505.8C586.7 506.7 613.3 513.3 640 516.3C666.7 519.3 693.3 518.7 720 516C746.7 513.3 773.3 508.7 800 509C826.7 509.3 853.3 514.7 880 514.7C906.7 514.7 933.3 509.3 946.7 506.7L960 504L960 541L946.7 541C933.3 541 906.7 541 880 541C853.3 541 826.7 541 800 541C773.3 541 746.7 541 720 541C693.3 541 666.7 541 640 541C613.3 541 586.7 541 560 541C533.3 541 506.7 541 480 541C453.3 541 426.7 541 400 541C373.3 541 346.7 541 320 541C293.3 541 266.7 541 240 541C213.3 541 186.7 541 160 541C133.3 541 106.7 541 80 541C53.3 541 26.7 541 13.3 541L0 541Z" fill="#ff9924" stroke-linecap="round" stroke-linejoin="miter"></path></svg>